# xmcd CD database file
#
# Track frame offsets:
#	150
#	19620
#	48570
#	80962
#	103475
#	124145
#	145525
#	179780
#	208360
#	237907
#
# Disc length: 3426 seconds
#
# Revision: 0
# Processed by: cddbd v1.5.2PL0 Copyright (c) Steve Scherf et al.
# Submitted via: CDex 1.72
#
DISCID=9a0d600a
DTITLE=Tobin, Edward [CDN-01-Supercool-jazz) X - Supercool
DYEAR=2001
DGENRE=Jazz
TTITLE0=Erindale
TTITLE1=Last Train
TTITLE2=Sunday
TTITLE3=Summer 4am
TTITLE4=Intermission
TTITLE5=5 Days
TTITLE6=Can We Talk?
TTITLE7=Daphnie's Drawl
TTITLE8=Midnight Martini
TTITLE9=Butternut
EXTD=YEAR: 2001
EXTT0=
EXTT1=
EXTT2=
EXTT3=
EXTT4=
EXTT5=
EXTT6=
EXTT7=
EXTT8=
EXTT9=
PLAYORDER=
